<svg xmlns="http://www.w3.org/2000/svg" viewBox="0 0 256 256" fill="none">
  <defs>
    <linearGradient id="bg" x1="24" y1="20" x2="220" y2="236" gradientUnits="userSpaceOnUse">
      <stop stop-color="#2A0711"/>
      <stop offset="1" stop-color="#D90429"/>
    </linearGradient>
  </defs>
  <rect width="256" height="256" rx="128" fill="url(#bg)"/>
  <circle cx="197" cy="58" r="28" fill="#FFB3C1" fill-opacity=".18"/>
  <circle cx="124" cy="92" r="42" fill="#FFE4D8"/>
  <path d="M60 220c10-40 42-68 78-68 39 0 71 27 78 68H60Z" fill="#14060A"/>
  <path d="M92 88c13-16 55-17 68 0" stroke="#5B1022" stroke-width="8" stroke-linecap="round"/>
  <circle cx="110" cy="95" r="4" fill="#3A121C"/>
  <circle cx="138" cy="95" r="4" fill="#3A121C"/>
  <path d="M113 117c8 6 18 6 26 0" stroke="#B23A48" stroke-width="5" stroke-linecap="round"/>
  <rect x="40" y="34" width="62" height="18" rx="9" fill="#FFF4F6" fill-opacity=".18"/>
  <circle cx="52" cy="43" r="3" fill="#FFF4F6"/>
  <circle cx="66" cy="43" r="3" fill="#FFF4F6"/>
  <circle cx="80" cy="43" r="3" fill="#FFF4F6"/>
</svg>
