<svg xmlns="http://www.w3.org/2000/svg" viewBox="0 0 256 256" fill="none">
  <defs>
    <linearGradient id="bg" x1="18" y1="18" x2="224" y2="238" gradientUnits="userSpaceOnUse">
      <stop stop-color="#08121D"/>
      <stop offset="1" stop-color="#00AEEF"/>
    </linearGradient>
  </defs>
  <rect width="256" height="256" rx="128" fill="url(#bg)"/>
  <path d="M174 34h32c9 0 16 7 16 16v10h-48V34Z" fill="#D9F6FF" fill-opacity=".2"/>
  <circle cx="128" cy="92" r="42" fill="#E4F7FF"/>
  <path d="M58 220c9-38 41-68 78-68 38 0 69 28 78 68H58Z" fill="#081A29"/>
  <path d="M89 86c14-15 60-15 78 0" stroke="#0C3752" stroke-width="8" stroke-linecap="round"/>
  <circle cx="112" cy="96" r="4" fill="#103249"/>
  <circle cx="142" cy="96" r="4" fill="#103249"/>
  <path d="M115 119c8 6 18 6 26 0" stroke="#1991C8" stroke-width="5" stroke-linecap="round"/>
  <circle cx="196" cy="74" r="18" stroke="#D9F6FF" stroke-width="7" stroke-opacity=".3"/>
  <circle cx="196" cy="74" r="4" fill="#D9F6FF"/>
</svg>
