<svg xmlns="http://www.w3.org/2000/svg" viewBox="0 0 256 256" fill="none">
  <defs>
    <linearGradient id="bg" x1="22" y1="16" x2="232" y2="236" gradientUnits="userSpaceOnUse">
      <stop stop-color="#081A1C"/>
      <stop offset="1" stop-color="#15C5B7"/>
    </linearGradient>
  </defs>
  <rect width="256" height="256" rx="128" fill="url(#bg)"/>
  <path d="M194 32 200 44 214 46 204 56 206 70 194 63 182 70 184 56 174 46 188 44Z" fill="#DFFFF9" fill-opacity=".28"/>
  <circle cx="128" cy="92" r="42" fill="#ECFFFB"/>
  <path d="M58 220c10-40 42-68 78-68 38 0 69 28 78 68H58Z" fill="#082024"/>
  <path d="M91 84c14-13 60-13 74 0" stroke="#0B6B71" stroke-width="8" stroke-linecap="round"/>
  <circle cx="113" cy="96" r="4" fill="#145256"/>
  <circle cx="143" cy="96" r="4" fill="#145256"/>
  <path d="M116 118c8 6 18 6 26 0" stroke="#2AA89C" stroke-width="5" stroke-linecap="round"/>
</svg>
